<svg preserveAspectRatio="none" overflow="visible" style="display: block;" width="12.7" height="14" viewBox="0 0 12.7 14" fill="none" xmlns="http://www.w3.org/2000/svg">
<g id="Vector">
<path d="M12.615 10.5127C12.6394 10.3917 12.6498 10.2704 12.6498 10.1502C12.6498 9.03518 12.0975 8.29194 11.6828 7.73436C11.4709 7.44942 11.295 7.21293 11.2474 7C11.2174 6.8661 11.1852 6.67322 11.1458 6.43639C10.8357 4.5753 10.0734 0 6.34848 0C5.06013 0 4.12619 0.547354 3.44279 1.34043L12.615 10.5127Z" fill="#060708" fill-opacity="0.28"/>
<path d="M1.01414 7.73436C1.22605 7.44942 1.40193 7.21293 1.44961 7C1.4796 6.8661 1.51173 6.67322 1.55119 6.43639C1.65798 5.79547 1.81841 4.83265 2.13499 3.84565L0.21967 1.93032C-0.0732233 1.63743 -0.0732233 1.16256 0.21967 0.869664C0.512563 0.576771 0.987437 0.576771 1.28033 0.869664L12.4803 12.0697C12.7732 12.3626 12.7732 12.8374 12.4803 13.1303C12.1874 13.4232 11.7126 13.4232 11.4197 13.1303L7.51344 9.2241C7.15855 9.20857 6.7716 9.20007 6.34996 9.20007C3.7569 9.20007 2.47608 9.52161 1.89062 9.82123C1.6283 9.95548 1.56744 10.0545 1.56346 10.061C1.56141 10.0638 1.54982 10.0795 1.54982 10.1502C1.54982 10.2209 1.56176 10.2371 1.5638 10.2398C1.56776 10.2463 1.62825 10.3448 1.89054 10.479C2.14164 10.6075 2.51988 10.7439 3.07551 10.8534C3.40081 10.9354 3.6416 11.2299 3.6416 11.5806C3.6416 11.9949 3.30582 12.3306 2.8916 12.3306C2.81453 12.3306 2.74018 12.319 2.6702 12.2974C0.53684 11.8492 0.0498047 10.9731 0.0498047 10.1502L0.0498053 10.1485L0.046875 10.15C0.046875 9.03502 0.599487 8.29194 1.01414 7.73436Z" fill="#060708" fill-opacity="0.28"/>
<path d="M6.34961 14C7.31611 14 8.09961 13.2165 8.09961 12.25C8.09961 11.2835 7.31611 10.5 6.34961 10.5C5.38311 10.5 4.59961 11.2835 4.59961 12.25C4.59961 13.2165 5.38311 14 6.34961 14Z" fill="#060708" fill-opacity="0.28"/>
</g>
</svg>
