<svg preserveAspectRatio="none" overflow="visible" style="display: block;" width="14.9344" height="14.9344" viewBox="0 0 14.9344 14.9344" fill="none" xmlns="http://www.w3.org/2000/svg">
<path id="Vector" d="M0.33444 8.37527C-0.11148 7.85201 -0.11148 7.0824 0.334439 6.55914L1.32945 5.39156C1.52053 5.16733 1.63602 4.88853 1.65945 4.59486L1.78148 3.06568C1.83617 2.38036 2.38036 1.83617 3.06568 1.78148L4.59486 1.65945C4.88853 1.63602 5.16733 1.52053 5.39156 1.32945L6.55914 0.33444C7.0824 -0.11148 7.85201 -0.11148 8.37527 0.334439L9.54286 1.32945C9.76709 1.52053 10.0459 1.63602 10.3396 1.65945L11.8687 1.78148C12.5541 1.83617 13.0982 2.38036 13.1529 3.06568L13.275 4.59486C13.2984 4.88853 13.4139 5.16733 13.605 5.39156L14.6 6.55914C15.0459 7.0824 15.0459 7.85201 14.6 8.37527L13.605 9.54286C13.4139 9.76709 13.2984 10.0459 13.275 10.3396L13.1529 11.8687C13.0982 12.5541 12.5541 13.0982 11.8687 13.1529L10.3396 13.275C10.0459 13.2984 9.76709 13.4139 9.54286 13.605L8.37527 14.6C7.85201 15.0459 7.0824 15.0459 6.55914 14.6L5.39156 13.605C5.16733 13.4139 4.88853 13.2984 4.59486 13.275L3.06568 13.1529C2.38036 13.0982 1.83617 12.5541 1.78148 11.8687L1.65945 10.3396C1.63602 10.0459 1.52053 9.76709 1.32945 9.54286L0.33444 8.37527Z" fill="#007AFF"/>
</svg>
